<svg width="511" height="160" viewBox="0 0 511 160" fill="none" xmlns="http://www.w3.org/2000/svg">
    <path d="M223.062 3.30136L220.863 13.1462L226.016 18.9481L228.659 11.5298L223.062 3.30167L223.062 3.30136ZM235.465 0.909622L227.12 24.3366L213.842 9.38625L211.083 33.4313L191.87 17.6654L193.741 36.7473L170.75 24.8478L183.251 42.3569C183.496 42.2066 183.756 42.0776 184.034 41.9756C186.591 41.0356 189.558 42.6217 190.613 45.4923C191.388 47.6018 190.927 49.8501 189.614 51.268L191.311 53.646C194.429 56.9114 203.614 56.9454 217.964 52.0258C233.149 46.8204 241.194 40.4479 241.125 35.334L241.124 35.3341L240.58 32.0245C238.173 32.5433 235.567 30.9896 234.592 28.3381C233.537 25.4675 234.771 22.3373 237.328 21.3972C237.806 21.2216 238.298 21.1343 238.789 21.127L235.465 0.909314L235.465 0.909622ZM182.322 20.7987L185.648 29.3354L190.519 31.8565L189.981 26.3652L182.322 20.7985L182.322 20.7987ZM202.956 13.7177L202.509 22.7792L208.907 28.0295L209.822 20.0571L202.956 13.7177ZM238.377 24.2498C237.192 24.6851 236.644 26.0753 237.133 27.4045C237.622 28.7338 238.94 29.4383 240.124 29.003C241.308 28.5676 241.856 27.1774 241.367 25.8482C240.879 24.519 239.561 23.8144 238.377 24.2498ZM185.082 44.828C183.898 45.2633 183.35 46.6538 183.839 47.983C184.327 49.3122 185.645 50.0167 186.829 49.5813C188.014 49.1459 188.561 47.7559 188.073 46.4265C187.584 45.0973 186.266 44.3925 185.082 44.8279L185.082 44.828ZM203.8 41.0379C206.357 40.0978 209.324 41.6837 210.379 44.5546C211.434 47.4252 210.201 50.555 207.644 51.4951C205.087 52.4352 202.12 50.8494 201.064 47.9788C200.009 45.1082 201.242 41.978 203.8 41.038L203.8 41.0379ZM221.64 34.4798C224.197 33.5397 227.164 35.1256 228.219 37.9965C229.274 40.8671 228.041 43.9969 225.484 44.9369C222.926 45.8771 219.96 44.2913 218.904 41.4207C217.849 38.5501 219.082 35.4199 221.64 34.4798ZM204.848 43.8903C203.664 44.3257 203.116 45.7154 203.605 47.0449C204.093 48.3742 205.411 49.0789 206.595 48.6435C207.779 48.2082 208.327 46.8178 207.838 45.4886C207.35 44.1593 206.032 43.4548 204.848 43.8902L204.848 43.8903ZM222.688 37.3321C221.504 37.7675 220.956 39.1573 221.445 40.4868C221.933 41.816 223.251 42.5206 224.436 42.0853C225.62 41.6499 226.168 40.2595 225.679 38.9303C225.19 37.601 223.872 36.8968 222.688 37.3321Z" fill="#FDFDFD"/>
    <path d="M80.104 65.4L86.152 68.376C82.056 75.032 77.192 80.952 71.56 86.136C65.992 91.32 58.568 96.472 49.288 101.592C51.08 110.872 53.288 118.296 55.912 123.864C58.536 129.496 61.96 132.632 66.184 133.272V137.688C65.672 137.752 65 137.784 64.168 137.784C59.88 137.784 55.72 134.808 51.688 128.856C47.72 122.904 44.136 114.104 40.936 102.456C38.184 111.096 33.992 117.944 28.36 123C22.728 127.992 16.872 130.488 10.792 130.488C7.656 130.488 5.064 129.624 3.016 127.896C1.032 126.232 0.0399999 123.928 0.0399999 120.984C0.0399999 117.976 1.384 114.872 4.072 111.672C6.76 108.472 10.44 105.784 15.112 103.608L17.32 107.064C11.56 111.16 8.68 115 8.68 118.584C8.68 120.312 9.256 121.72 10.408 122.808C11.56 123.832 13.064 124.344 14.92 124.344C19.272 124.344 23.016 122.52 26.152 118.872C29.352 115.16 32.2 108.696 34.696 99.48C37.832 87.896 41.032 80.312 44.296 76.728C45.768 75.064 47.912 73.24 50.728 71.256C46.312 71.384 41.8 72.152 37.192 73.56C32.584 74.904 28.552 76.952 25.096 79.704C21.64 82.392 19.912 85.4 19.912 88.728C19.912 93.016 21.864 96.44 25.768 99L23.848 101.976C20.264 100.248 17.448 98.008 15.4 95.256C13.352 92.504 12.328 89.656 12.328 86.712C12.328 82.68 14.536 78.872 18.952 75.288C23.368 71.704 28.776 68.92 35.176 66.936C41.64 64.952 47.976 63.96 54.184 63.96C58.024 63.96 59.944 64.792 59.944 66.456C59.944 67.544 58.824 68.92 56.584 70.584C52.488 73.656 49.32 77.656 47.08 82.584C44.904 87.512 43.112 93.272 41.704 99.864C49 97.176 55.976 92.728 62.632 86.52C69.352 80.248 75.176 73.208 80.104 65.4ZM98.044 82.296C94.46 82.296 92.668 80.856 92.668 77.976C92.668 76.376 93.116 75.032 94.012 73.944C94.908 72.856 96.06 72.312 97.468 72.312C98.876 72.312 100.028 72.728 100.924 73.56C101.82 74.392 102.268 75.48 102.268 76.824C102.268 78.168 101.884 79.416 101.116 80.568C100.348 81.72 99.324 82.296 98.044 82.296ZM96.796 110.616L98.716 112.248C97.18 115.192 95.132 117.72 92.572 119.832C90.076 121.88 87.804 122.904 85.756 122.904C82.172 122.904 80.38 120.408 80.38 115.416C80.38 109.208 82.94 101.112 88.06 91.128C89.212 88.952 89.884 87.672 90.076 87.288L94.204 89.784C92.86 92.216 91.196 96.088 89.212 101.4C87.292 106.712 86.332 110.136 86.332 111.672C86.332 113.144 86.652 114.2 87.292 114.84C87.932 115.48 88.7 115.8 89.596 115.8C91.324 115.8 93.724 114.072 96.796 110.616ZM144.372 111.384L146.388 112.92C144.98 115.736 143.028 118.104 140.532 120.024C138.1 121.944 135.892 122.904 133.908 122.904C131.924 122.904 130.356 122.328 129.204 121.176C128.052 120.024 127.476 118.584 127.476 116.856C127.476 115.128 128.564 112.12 130.74 107.832C132.98 103.48 134.1 100.28 134.1 98.232C134.1 97.336 133.716 96.536 132.948 95.832C132.244 95.064 131.38 94.68 130.356 94.68C127.092 94.68 123.796 97.176 120.468 102.168C117.14 107.096 113.428 114.232 109.332 123.576L103.572 121.56C104.788 114.136 106.516 106.904 108.756 99.864C111.06 92.76 113.172 87.672 115.092 84.6L119.028 85.848C117.236 90.392 114.964 98.232 112.212 109.368C121.044 94.264 129.172 86.712 136.596 86.712C138.196 86.712 139.508 87.256 140.532 88.344C141.62 89.432 142.164 90.712 142.164 92.184C142.164 93.656 141.972 95 141.588 96.216C141.204 97.368 139.988 100.12 137.94 104.472C135.956 108.76 134.964 111.448 134.964 112.536C134.964 113.624 135.284 114.488 135.924 115.128C136.564 115.704 137.172 115.992 137.748 115.992C138.324 115.992 138.804 115.896 139.188 115.704C139.572 115.512 139.988 115.224 140.436 114.84C140.948 114.456 141.396 114.104 141.78 113.784C142.164 113.464 142.612 113.048 143.124 112.536C143.7 111.96 144.116 111.576 144.372 111.384ZM190.055 119.544L190.151 121.848C189.511 122.232 186.599 123.384 181.415 125.304C179.367 137.528 176.359 146.36 172.391 151.8C168.423 157.24 163.559 159.96 157.799 159.96C155.111 159.96 152.967 159.096 151.367 157.368C149.767 155.64 148.967 153.4 148.967 150.648C148.967 145.144 151.495 139.992 156.551 135.192C161.607 130.456 168.359 126.712 176.807 123.96C177.767 119.672 179.495 113.624 181.991 105.816C177.703 112.344 173.799 116.76 170.279 119.064C166.823 121.368 163.687 122.52 160.871 122.52C158.055 122.52 155.911 121.752 154.439 120.216C153.031 118.68 152.327 116.632 152.327 114.072C152.327 109.848 154.087 105.56 157.607 101.208C161.127 96.792 165.543 93.208 170.855 90.456C176.231 87.64 181.415 86.232 186.407 86.232L187.175 89.592C180.071 90.36 173.959 92.856 168.839 97.08C163.783 101.304 161.255 105.368 161.255 109.272C161.255 110.936 161.767 112.312 162.791 113.4C163.815 114.488 165.063 115.032 166.535 115.032C168.711 115.032 172.007 112.728 176.423 108.12C180.839 103.512 183.943 99.576 185.735 96.312L189.287 98.328C185.767 107.736 183.335 115.672 181.991 122.136L190.055 119.544ZM176.231 126.84C170.663 129.4 166.055 132.472 162.407 136.056C158.759 139.64 156.935 142.904 156.935 145.848C156.935 147.384 157.383 148.632 158.279 149.592C159.175 150.552 160.295 151.032 161.639 151.032C164.327 151.032 166.983 149.144 169.607 145.368C172.231 141.592 174.439 135.416 176.231 126.84ZM284.393 63.384L307.145 64.056C308.297 64.056 309.737 63.8 311.465 63.288C313.257 62.712 314.441 62.424 315.017 62.424C315.593 62.424 316.041 62.616 316.361 63C316.745 63.32 316.937 63.736 316.937 64.248C316.937 65.592 316.329 66.744 315.113 67.704C313.897 68.6 312.297 69.24 310.313 69.624C306.601 70.456 303.305 70.872 300.425 70.872C296.521 73.56 292.713 81.304 289.001 94.104C295.337 94.104 299.273 94.2 300.809 94.392L300.617 98.904C299.657 98.968 298.217 99 296.297 99L287.561 98.712C283.977 109.656 279.145 118.36 273.065 124.824C266.985 131.288 260.553 134.52 253.769 134.52C249.609 134.52 246.249 133.272 243.689 130.776C241.129 128.28 239.849 124.984 239.849 120.888C239.849 114.296 243.785 108.312 251.657 102.936C259.529 97.496 269.225 94.616 280.745 94.296C284.649 82.008 289.225 74.2 294.473 70.872L279.017 70.296C272.553 70.296 267.721 71.128 264.521 72.792C261.385 74.456 259.817 76.664 259.817 79.416C259.817 80.888 260.425 82.136 261.641 83.16C262.857 84.12 264.073 84.6 265.289 84.6C266.505 84.6 267.401 84.568 267.977 84.504C268.617 84.376 269.385 84.152 270.281 83.832C271.241 83.448 271.913 83.192 272.297 83.064C273.641 82.616 275.273 81.912 277.193 80.952L279.209 83.448C274.345 88.312 269.033 90.744 263.273 90.744C260.713 90.744 258.601 89.944 256.937 88.344C255.273 86.744 254.441 84.728 254.441 82.296C254.441 76.984 257.161 72.504 262.601 68.856C268.041 65.208 275.305 63.384 284.393 63.384ZM270.953 117.048C274.409 111.672 277.161 105.656 279.209 99C271.273 99.64 264.265 102.168 258.185 106.584C252.169 111 249.161 115.736 249.161 120.792C249.161 122.776 249.833 124.408 251.177 125.688C252.585 126.968 254.409 127.608 256.649 127.608C258.889 127.608 261.321 126.648 263.945 124.728C266.569 122.872 268.905 120.312 270.953 117.048ZM330.732 82.296C327.148 82.296 325.356 80.856 325.356 77.976C325.356 76.376 325.804 75.032 326.7 73.944C327.596 72.856 328.748 72.312 330.156 72.312C331.564 72.312 332.716 72.728 333.612 73.56C334.508 74.392 334.956 75.48 334.956 76.824C334.956 78.168 334.572 79.416 333.804 80.568C333.036 81.72 332.012 82.296 330.732 82.296ZM329.484 110.616L331.404 112.248C329.868 115.192 327.82 117.72 325.26 119.832C322.764 121.88 320.492 122.904 318.444 122.904C314.86 122.904 313.068 120.408 313.068 115.416C313.068 109.208 315.628 101.112 320.748 91.128C321.9 88.952 322.572 87.672 322.764 87.288L326.892 89.784C325.548 92.216 323.884 96.088 321.9 101.4C319.98 106.712 319.02 110.136 319.02 111.672C319.02 113.144 319.34 114.2 319.98 114.84C320.62 115.48 321.388 115.8 322.284 115.8C324.012 115.8 326.412 114.072 329.484 110.616ZM359.299 112.248L361.411 114.648C359.811 117.144 357.859 119.096 355.555 120.504C353.315 121.912 351.043 122.616 348.739 122.616C346.435 122.616 344.611 121.976 343.267 120.696C341.923 119.352 341.251 117.528 341.251 115.224C341.251 109.848 343.267 102.424 347.299 92.952C344.035 93.464 340.771 94.232 337.507 95.256L336.835 91.512L336.739 91.416C339.939 90.072 344.131 88.984 349.315 88.152C349.827 87.192 350.979 84.856 352.771 81.144C356.355 73.784 358.915 69.016 360.451 66.84L364.579 68.472C363.939 69.88 362.819 72.248 361.219 75.576C359.619 78.84 357.827 82.552 355.843 86.712C358.723 86.52 360.995 86.424 362.659 86.424C364.323 86.424 365.603 86.68 366.499 87.192V91.32C365.603 91.128 364.291 91.032 362.563 91.032C360.899 91.032 357.891 91.32 353.539 91.896C349.763 100.344 347.875 106.488 347.875 110.328C347.875 111.8 348.323 113.016 349.219 113.976C350.179 114.936 351.427 115.416 352.963 115.416C354.563 115.416 356.675 114.36 359.299 112.248ZM408.747 111.384L410.763 112.92C409.355 115.736 407.403 118.104 404.907 120.024C402.475 121.944 400.267 122.904 398.283 122.904C396.299 122.904 394.731 122.328 393.579 121.176C392.427 120.024 391.851 118.584 391.851 116.856C391.851 115.128 392.939 112.12 395.115 107.832C397.355 103.48 398.475 100.28 398.475 98.232C398.475 97.336 398.091 96.536 397.323 95.832C396.619 95.064 395.755 94.68 394.731 94.68C391.467 94.68 388.171 97.176 384.843 102.168C381.515 107.096 377.803 114.232 373.707 123.576L367.947 121.56C369.163 114.136 370.891 106.904 373.131 99.864C375.435 92.76 377.547 87.672 379.467 84.6L383.403 85.848C381.611 90.392 379.339 98.232 376.587 109.368C385.419 94.264 393.547 86.712 400.971 86.712C402.571 86.712 403.883 87.256 404.907 88.344C405.995 89.432 406.539 90.712 406.539 92.184C406.539 93.656 406.347 95 405.963 96.216C405.579 97.368 404.363 100.12 402.315 104.472C400.331 108.76 399.339 111.448 399.339 112.536C399.339 113.624 399.659 114.488 400.299 115.128C400.939 115.704 401.547 115.992 402.123 115.992C402.699 115.992 403.179 115.896 403.563 115.704C403.947 115.512 404.363 115.224 404.811 114.84C405.323 114.456 405.771 114.104 406.155 113.784C406.539 113.464 406.987 113.048 407.499 112.536C408.075 111.96 408.491 111.576 408.747 111.384ZM439.934 111.672L442.142 113.4C440.158 116.152 437.438 118.456 433.982 120.312C430.526 122.104 427.166 123 423.902 123C420.638 123 418.014 122.04 416.03 120.12C414.046 118.2 413.054 115.672 413.054 112.536C413.054 106.648 416.158 100.856 422.366 95.16C428.638 89.464 434.974 86.616 441.374 86.616C445.598 86.616 447.71 88.28 447.71 91.608C447.71 95.064 445.47 98.552 440.99 102.072C436.574 105.592 430.334 108.792 422.27 111.672C422.846 113.144 423.742 114.296 424.958 115.128C426.174 115.96 427.422 116.376 428.702 116.376C431.454 116.376 435.198 114.808 439.934 111.672ZM421.79 108.792C426.974 107 431.422 104.76 435.134 102.072C438.846 99.384 440.702 96.92 440.702 94.68C440.702 93.848 440.382 93.112 439.742 92.472C439.102 91.832 438.366 91.512 437.534 91.512C434.526 91.512 431.262 93.4 427.742 97.176C424.286 100.888 422.302 104.76 421.79 108.792ZM478.665 85.464L477.801 89.208C476.713 89.08 475.305 89.016 473.577 89.016C467.177 89.016 463.977 91.128 463.977 95.352C463.977 96.248 465.257 98.872 467.817 103.224C470.441 107.576 471.753 110.488 471.753 111.96C471.753 115.416 470.569 118.136 468.201 120.12C465.897 122.04 462.793 123 458.889 123C453.513 123 449.193 120.024 445.928 114.072L449.577 111.48C450.473 112.184 451.433 113.048 452.457 114.072C453.481 115.032 454.249 115.704 454.761 116.088C455.977 117.176 457.321 117.72 458.793 117.72C460.265 117.72 461.545 117.208 462.633 116.184C463.721 115.096 464.265 113.784 464.265 112.248C464.265 110.648 462.857 107.704 460.041 103.416C457.289 99.128 455.913 96.12 455.913 94.392C455.913 91.256 457.225 88.856 459.849 87.192C462.537 85.528 466.025 84.696 470.312 84.696C474.665 84.696 477.449 84.952 478.665 85.464ZM510.446 85.464L509.582 89.208C508.494 89.08 507.086 89.016 505.358 89.016C498.958 89.016 495.758 91.128 495.758 95.352C495.758 96.248 497.038 98.872 499.598 103.224C502.222 107.576 503.534 110.488 503.534 111.96C503.534 115.416 502.35 118.136 499.982 120.12C497.678 122.04 494.574 123 490.67 123C485.294 123 480.974 120.024 477.71 114.072L481.358 111.48C482.254 112.184 483.214 113.048 484.238 114.072C485.262 115.032 486.03 115.704 486.542 116.088C487.758 117.176 489.102 117.72 490.574 117.72C492.046 117.72 493.326 117.208 494.414 116.184C495.502 115.096 496.046 113.784 496.046 112.248C496.046 110.648 494.638 107.704 491.822 103.416C489.07 99.128 487.694 96.12 487.694 94.392C487.694 91.256 489.006 88.856 491.63 87.192C494.318 85.528 497.806 84.696 502.094 84.696C506.446 84.696 509.23 84.952 510.446 85.464Z" fill="white"/>
</svg>  